# File created by Blade
# Date/Time:  Wed Jan 21 16:14:13 2015
# Frame Rate: 120.000 fps
#------------------------------------------------------
:FULLY-SPECIFIED
:DEGREES
201
root 18.550872 35.672834 -19.482181 -171.054680 -1.842583 -178.744085
Spine -18.322308 0.500652 0.652958
Head 11.909099 -1.367957 2.750430
LeftShoulder -11.115308 -32.079456 15.985712
LeftArm -8.221082 -0.047064 -22.665712
LeftForeArm 5.818111 -0.000000 -3.619958
LeftHand 2.162063 -0.000000 -4.168537
LeftHandThumb1 -26.253704 0.000000 33.147579
RightShoulder -9.512087 -0.108613 -12.085862
RightArm -0.540396 45.668139 20.807970
RightForeArm -28.592181 -0.000000 3.106719
RightHand -2.439344 -0.000000 -2.427129
RightHandThumb1 -24.326973 -0.000000 -32.862282
LeftUpLeg -2.585324 8.422508 -0.030945
LeftLeg -4.861129 -0.000000 0.000000
LeftFoot -19.779005 25.875085 -11.878727
LeftToeBase 26.338928 -0.000000 -0.000000
RightUpLeg -4.052758 -5.926554 2.126795
RightLeg -1.458094 -0.000000 0.000000
RightFoot -21.049430 -27.711741 15.082597
RightToeBase 23.327731 -0.000000 -0.000000
202
root 18.552497 35.668883 -19.474464 -170.926299 -1.861169 -178.741976
Spine -18.354199 0.443941 0.624628
Head 11.754980 -1.473397 2.694947
LeftShoulder -11.434834 -31.771119 15.804754
LeftArm -9.387411 -1.168319 -23.704764
LeftForeArm 5.259425 -0.000000 -3.613140
LeftHand 2.030936 -0.000000 -4.059804
LeftHandThumb1 -26.253704 0.000000 33.147579
RightShoulder -9.814074 -0.748438 -11.398963
RightArm -0.389924 45.867347 22.412735
RightForeArm -28.000655 0.000000 3.215222
RightHand -2.527218 -0.000000 -2.400672
RightHandThumb1 -24.326973 -0.000000 -32.862282
LeftUpLeg -2.714626 8.413840 -0.046313
LeftLeg -4.891196 -0.000000 0.000000
LeftFoot -19.781211 25.857132 -11.841139
LeftToeBase 26.076605 -0.000000 -0.000000
RightUpLeg -4.162624 -5.965877 2.147118
RightLeg -1.516532 -0.000000 0.000000
RightFoot -21.021186 -27.702282 15.000270
RightToeBase 23.391460 -0.000000 -0.000000
203
root 18.554613 35.664894 -19.467262 -170.796993 -1.879656 -178.736030
Spine -18.387558 0.422291 0.604808
Head 11.644194 -1.428560 2.672753
LeftShoulder -11.746438 -31.314745 15.548033
LeftArm -10.409333 -2.463709 -24.696531
LeftForeArm 4.683794 -0.000000 -3.615824
LeftHand 1.926028 -0.000000 -3.890984
LeftHandThumb1 -26.253704 0.000000 33.147579
RightShoulder -10.164316 -1.224735 -10.747946
RightArm -0.237444 46.380098 24.012047
RightForeArm -27.772885 -0.000000 3.317670
RightHand -2.773625 -0.000000 -2.214524
RightHandThumb1 -24.326973 -0.000000 -32.862282
LeftUpLeg -2.842565 8.423969 -0.058478
LeftLeg -4.929422 -0.000000 0.000000
LeftFoot -19.807036 25.865048 -11.848798
LeftToeBase 26.422624 -0.000000 -0.000000
RightUpLeg -4.264799 -5.987880 2.171675
RightLeg -1.588120 -0.000000 0.000000
RightFoot -20.989087 -27.708786 14.948569
RightToeBase 23.370948 -0.000000 -0.000000
204
root 18.555093 35.660886 -19.460919 -170.655523 -1.901772 -178.728751
Spine -18.442385 0.400179 0.601235
Head 11.514769 -1.333138 2.613487
LeftShoulder -12.030805 -30.932840 15.258988
LeftArm -11.457269 -3.562555 -25.624667
LeftForeArm 4.122923 -0.000000 -3.589382
LeftHand 1.685589 0.000000 -3.846306
LeftHandThumb1 -26.253704 0.000000 33.147579
RightShoulder -10.520986 -1.507990 -10.146249
RightArm -0.201190 46.844428 25.542587
RightForeArm -27.484474 -0.000000 3.500608
RightHand -3.133754 0.000000 -1.936762
RightHandThumb1 -24.326973 -0.000000 -32.862282
LeftUpLeg -2.989348 8.438352 -0.073442
LeftLeg -4.951598 -0.000000 0.000000
LeftFoot -19.850856 25.838478 -11.856279
LeftToeBase 26.521120 -0.000000 -0.000000
RightUpLeg -4.379236 -6.020589 2.196628
RightLeg -1.653738 -0.000000 0.000000
RightFoot -20.949465 -27.701128 14.854692
RightToeBase 23.432707 -0.000000 -0.000000
205
root 18.556093 35.657022 -19.452623 -170.514245 -1.877100 -178.705035
Spine -18.491196 0.453508 0.596719
Head 11.350367 -1.404047 2.513520
LeftShoulder -12.278527 -30.616305 14.973053
LeftArm -12.514953 -4.756351 -26.491643
LeftForeArm 3.692607 -0.000000 -3.607489
LeftHand 1.609562 0.000000 -3.791007
LeftHandThumb1 -26.253704 0.000000 33.147579
RightShoulder -10.924400 -1.810837 -9.535326
RightArm -0.078584 47.476253 27.144960
RightForeArm -27.272265 -0.000000 3.662109
RightHand -3.324990 -0.000000 -1.664214
RightHandThumb1 -24.326973 -0.000000 -32.862282
LeftUpLeg -3.137472 8.495453 -0.077940
LeftLeg -4.963254 -0.000000 0.000000
LeftFoot -19.889013 25.814203 -11.833038
LeftToeBase 26.532338 -0.000000 -0.000000
RightUpLeg -4.513409 -5.962013 2.227234
RightLeg -1.694036 -0.000000 0.000000
RightFoot -20.927543 -27.720323 14.830787
RightToeBase 23.407574 -0.000000 -0.000000
206
root 18.557981 35.651932 -19.455239 -170.459563 -1.929241 -178.713884
Spine -18.469656 0.395058 0.575281
Head 11.241437 -1.388682 2.405401
LeftShoulder -12.529087 -30.306972 14.659258
LeftArm -13.522757 -5.830072 -27.283767
LeftForeArm 3.260838 -0.000000 -3.673335
LeftHand 1.480941 -0.000000 -3.757946
LeftHandThumb1 -26.253704 0.000000 33.147579
RightShoulder -11.310824 -2.221800 -8.908011
RightArm 0.178189 48.228335 28.920325
RightForeArm -27.194950 -0.000000 3.920852
RightHand -3.675659 -0.000000 -1.563935
RightHandThumb1 -24.326973 -0.000000 -32.862282
LeftUpLeg -3.176414 8.475304 -0.087208
LeftLeg -5.002687 -0.000000 0.000000
LeftFoot -19.897820 25.800106 -11.811583
LeftToeBase 26.604176 -0.000000 -0.000000
RightUpLeg -4.508784 -6.034273 2.232758
RightLeg -1.793366 -0.000000 0.000000
RightFoot -20.888962 -27.711103 14.723450
RightToeBase 23.472833 -0.000000 -0.000000
207
root 18.559588 35.647204 -19.449878 -170.373195 -2.036088 -178.718819
Spine -18.468638 0.262921 0.592201
Head 11.138324 -1.234339 2.319510
LeftShoulder -12.770806 -30.187823 14.345134
LeftArm -14.667349 -6.688557 -27.990914
LeftForeArm 3.011327 0.000000 -3.662386
LeftHand 1.328711 0.000000 -3.764422
LeftHandThumb1 -26.253704 0.000000 33.147579
RightShoulder -11.605311 -2.568587 -8.291390
RightArm 0.285786 48.821551 30.558521
RightForeArm -27.244084 -0.000000 4.244092
RightHand -4.040934 -0.000000 -1.304040
RightHandThumb1 -24.326973 -0.000000 -32.862282
LeftUpLeg -3.297404 8.382280 -0.089442
LeftLeg -4.979683 -0.000000 0.000000
LeftFoot -19.972497 25.783522 -11.844901
LeftToeBase 26.663557 -0.000000 -0.000000
RightUpLeg -4.572152 -6.181219 2.260729
RightLeg -1.838930 -0.000000 0.000000
RightFoot -20.880153 -27.692612 14.653132
RightToeBase 23.476940 -0.000000 -0.000000
208
root 18.560135 35.643874 -19.449609 -170.270794 -2.066676 -178.717185
Spine -18.506503 0.246811 0.587805
Head 11.033315 -1.123023 2.245224
LeftShoulder -12.985581 -30.097917 14.046782
LeftArm -15.801722 -7.523523 -28.684842
LeftForeArm 2.794804 -0.000000 -3.645493
LeftHand 1.188878 -0.000000 -3.735811
LeftHandThumb1 -26.253704 0.000000 33.147579
RightShoulder -11.950271 -3.145501 -7.613381
RightArm 0.610003 49.255249 32.314661
RightForeArm -27.318325 -0.000000 4.495293
RightHand -4.171221 0.000000 -1.100100
RightHandThumb1 -24.326973 -0.000000 -32.862282
LeftUpLeg -3.393964 8.387251 -0.103094
LeftLeg -5.005069 -0.000000 0.000000
LeftFoot -19.976214 25.775741 -11.809117
LeftToeBase 26.707320 -0.000000 -0.000000
RightUpLeg -4.651042 -6.233340 2.281352
RightLeg -1.882167 -0.000000 0.000000
RightFoot -20.856205 -27.687939 14.591165
RightToeBase 23.475553 -0.000000 -0.000000
209
root 18.561184 35.640518 -19.441755 -170.094788 -2.119116 -178.712998
Spine -18.628988 0.248981 0.558190
Head 10.915442 -1.151572 2.196854
LeftShoulder -13.201812 -29.930863 13.787226
LeftArm -16.841729 -8.214013 -29.493083
LeftForeArm 2.471290 0.000000 -3.604281
LeftHand 0.965124 -0.000000 -3.704213
LeftHandThumb1 -26.253704 0.000000 33.147579
RightShoulder -12.252978 -3.703756 -6.892192
RightArm 0.769291 49.226592 33.867728
RightForeArm -27.277607 -0.000000 4.801282
RightHand -4.342128 0.000000 -0.556608
RightHandThumb1 -24.326973 -0.000000 -32.862282
LeftUpLeg -3.608266 8.347105 -0.119843
LeftLeg -4.973779 -0.000000 0.000000
LeftFoot -20.027975 25.786014 -11.802885
LeftToeBase 26.747362 -0.000000 -0.000000
RightUpLeg -4.820864 -6.240048 2.308275
RightLeg -1.906796 -0.000000 0.000000
RightFoot -20.862166 -27.713334 14.557897
RightToeBase 23.478767 -0.000000 -0.000000
210
root 18.561625 35.637663 -19.437976 -169.969931 -2.153523 -178.707348
Spine -18.699888 0.266736 0.534766
Head 10.808937 -1.175169 2.142232
LeftShoulder -13.390322 -29.740199 13.517290
LeftArm -17.889479 -8.951927 -30.278060
LeftForeArm 2.147643 -0.000000 -3.488594
LeftHand 0.704746 0.000000 -3.782332
LeftHandThumb1 -26.253704 0.000000 33.147579
RightShoulder -12.486160 -4.286295 -6.171811
RightArm 0.878447 48.928079 35.397586
RightForeArm -27.154912 0.000000 5.135100
RightHand -4.582878 0.000000 -0.179939
RightHandThumb1 -24.326973 -0.000000 -32.862282
LeftUpLeg -3.759902 8.361205 -0.132342
LeftLeg -4.948167 -0.000000 0.000000
LeftFoot -20.071926 25.739905 -11.799309
LeftToeBase 26.833742 -0.000000 -0.000000
RightUpLeg -4.930041 -6.218843 2.327736
RightLeg -1.941789 -0.000000 0.000000
RightFoot -20.863568 -27.773973 14.525271
RightToeBase 23.529718 -0.000000 -0.000000
